<svg xmlns="http://www.w3.org/2000/svg" xmlns:xlink="http://www.w3.org/1999/xlink" width="548" zoomAndPan="magnify" viewBox="0 0 410.88 213" height="284" preserveAspectRatio="xMidYMid meet" version="1.0"><defs><g/><clipPath id="eff3770bbc"><path d="M 0 0.03125 L 410.761719 0.03125 L 410.761719 212.96875 L 0 212.96875 Z M 0 0.03125 " clip-rule="nonzero"/></clipPath></defs><g clip-path="url(#eff3770bbc)"><path fill="#ffffff" d="M 0 0.03125 L 410.878906 0.03125 L 410.878906 212.96875 L 0 212.96875 Z M 0 0.03125 " fill-opacity="1" fill-rule="nonzero"/></g><g fill="#e43d12" fill-opacity="1"><g transform="translate(28.085329, 171.791775)"><g><path d="M 84.890625 -2 C 85.335938 -1.46875 85.425781 -1 85.15625 -0.59375 C 84.894531 -0.195312 84.410156 0 83.703125 0 L 60.8125 0 C 60.28125 0 59.878906 -0.132812 59.609375 -0.40625 L 28.609375 -38.71875 C 28.160156 -38.28125 27.160156 -37.191406 25.609375 -35.453125 C 24.054688 -33.722656 22.191406 -31.640625 20.015625 -29.203125 C 17.847656 -26.765625 15.609375 -24.238281 13.296875 -21.625 C 10.992188 -19.007812 8.820312 -16.546875 6.78125 -14.234375 C 4.738281 -11.929688 3.097656 -10.066406 1.859375 -8.640625 C 0.617188 -7.222656 0 -6.515625 0 -6.515625 L 0 -105.25 C 0 -106.050781 0.488281 -106.453125 1.46875 -106.453125 L 19.03125 -106.453125 C 19.914062 -106.453125 20.359375 -106.050781 20.359375 -105.25 L 20.359375 -56.8125 L 60.40625 -106.046875 C 60.675781 -106.316406 61.078125 -106.453125 61.609375 -106.453125 L 83.296875 -106.453125 C 84.003906 -106.453125 84.488281 -106.226562 84.75 -105.78125 C 85.019531 -105.34375 84.9375 -104.898438 84.5 -104.453125 L 42.1875 -52.296875 Z M 84.890625 -2 "/></g></g></g><g fill="#e43d12" fill-opacity="1"><g transform="translate(117.629528, 171.791775)"><g><path d="M 35.796875 -106.453125 C 36.679688 -106.453125 38.453125 -106.335938 41.109375 -106.109375 C 43.773438 -105.890625 46.816406 -105.269531 50.234375 -104.25 C 53.648438 -103.226562 57 -101.585938 60.28125 -99.328125 C 63.5625 -97.066406 66.285156 -93.941406 68.453125 -89.953125 C 70.628906 -85.960938 71.71875 -80.816406 71.71875 -74.515625 C 71.71875 -69.285156 70.921875 -64.875 69.328125 -61.28125 C 67.734375 -57.6875 65.625 -54.734375 63 -52.421875 C 60.382812 -50.117188 57.613281 -48.300781 54.6875 -46.96875 C 51.757812 -45.632812 48.941406 -44.679688 46.234375 -44.109375 C 43.535156 -43.535156 41.226562 -43.179688 39.3125 -43.046875 C 37.40625 -42.910156 36.234375 -42.84375 35.796875 -42.84375 L 19.953125 -42.84375 L 19.953125 -1.203125 C 19.953125 -0.398438 19.507812 0 18.625 0 L 1.328125 0 C 0.441406 0 0 -0.398438 0 -1.203125 L 0 -62.546875 L 35.796875 -62.546875 C 36.503906 -62.546875 37.675781 -62.632812 39.3125 -62.8125 C 40.957031 -62.988281 42.734375 -63.429688 44.640625 -64.140625 C 46.546875 -64.847656 48.164062 -66.019531 49.5 -67.65625 C 50.832031 -69.300781 51.5 -71.585938 51.5 -74.515625 C 51.5 -77.441406 50.8125 -79.75 49.4375 -81.4375 C 48.0625 -83.125 46.421875 -84.34375 44.515625 -85.09375 C 42.609375 -85.84375 40.832031 -86.328125 39.1875 -86.546875 C 37.539062 -86.773438 36.410156 -86.890625 35.796875 -86.890625 L 0 -86.890625 L 0 -105.25 C 0 -106.050781 0.441406 -106.453125 1.328125 -106.453125 Z M 35.796875 -106.453125 "/></g></g></g><path stroke-linecap="butt" transform="matrix(0.698036, -0.000000000000000519, 0.000000000000000519, 0.698036, 27.845762, 174.022587)" fill="none" stroke-linejoin="miter" d="M 0.00271358 10.997469 L 158.846778 10.997469 " stroke="#e43d12" stroke-width="22" stroke-opacity="1" stroke-miterlimit="4"/><g fill="#e43d12" fill-opacity="1"><g transform="translate(143.110613, 171.656704)"><g><path d="M 17.265625 0 L 6.375 -12.0625 L 6.375 0 L 2.921875 0 L 2.921875 -26.453125 L 6.375 -26.453125 L 6.375 -14.1875 L 17.3125 -26.453125 L 21.671875 -26.453125 L 9.671875 -13.203125 L 21.78125 0 Z M 17.265625 0 "/></g></g></g><g fill="#e43d12" fill-opacity="1"><g transform="translate(165.845454, 171.656704)"><g><path d="M 21.90625 -11.203125 C 21.90625 -10.535156 21.863281 -9.835938 21.78125 -9.109375 L 5.15625 -9.109375 C 5.28125 -7.054688 5.984375 -5.453125 7.265625 -4.296875 C 8.546875 -3.148438 10.097656 -2.578125 11.921875 -2.578125 C 13.410156 -2.578125 14.65625 -2.925781 15.65625 -3.625 C 16.65625 -4.320312 17.359375 -5.253906 17.765625 -6.421875 L 21.484375 -6.421875 C 20.921875 -4.421875 19.804688 -2.789062 18.140625 -1.53125 C 16.472656 -0.28125 14.398438 0.34375 11.921875 0.34375 C 9.941406 0.34375 8.171875 -0.0976562 6.609375 -0.984375 C 5.054688 -1.867188 3.835938 -3.128906 2.953125 -4.765625 C 2.066406 -6.398438 1.625 -8.289062 1.625 -10.4375 C 1.625 -12.582031 2.054688 -14.460938 2.921875 -16.078125 C 3.785156 -17.703125 4.992188 -18.953125 6.546875 -19.828125 C 8.097656 -20.703125 9.890625 -21.140625 11.921875 -21.140625 C 13.890625 -21.140625 15.632812 -20.707031 17.15625 -19.84375 C 18.675781 -18.988281 19.847656 -17.804688 20.671875 -16.296875 C 21.492188 -14.796875 21.90625 -13.097656 21.90625 -11.203125 Z M 18.328125 -11.921875 C 18.328125 -13.234375 18.035156 -14.363281 17.453125 -15.3125 C 16.867188 -16.257812 16.078125 -16.976562 15.078125 -17.46875 C 14.085938 -17.96875 12.984375 -18.21875 11.765625 -18.21875 C 10.015625 -18.21875 8.523438 -17.660156 7.296875 -16.546875 C 6.078125 -15.429688 5.378906 -13.890625 5.203125 -11.921875 Z M 18.328125 -11.921875 "/></g></g></g><g fill="#e43d12" fill-opacity="1"><g transform="translate(189.377345, 171.656704)"><g><path d="M 6.375 -28.078125 L 6.375 0 L 2.921875 0 L 2.921875 -28.078125 Z M 6.375 -28.078125 "/></g></g></g><g fill="#e43d12" fill-opacity="1"><g transform="translate(198.714201, 171.656704)"><g><path d="M 12 0.34375 C 10.050781 0.34375 8.285156 -0.0976562 6.703125 -0.984375 C 5.117188 -1.867188 3.875 -3.128906 2.96875 -4.765625 C 2.070312 -6.398438 1.625 -8.289062 1.625 -10.4375 C 1.625 -12.5625 2.085938 -14.4375 3.015625 -16.0625 C 3.941406 -17.695312 5.203125 -18.953125 6.796875 -19.828125 C 8.390625 -20.703125 10.171875 -21.140625 12.140625 -21.140625 C 14.117188 -21.140625 15.90625 -20.703125 17.5 -19.828125 C 19.09375 -18.953125 20.347656 -17.703125 21.265625 -16.078125 C 22.191406 -14.460938 22.65625 -12.582031 22.65625 -10.4375 C 22.65625 -8.289062 22.179688 -6.398438 21.234375 -4.765625 C 20.285156 -3.128906 19 -1.867188 17.375 -0.984375 C 15.757812 -0.0976562 13.96875 0.34375 12 0.34375 Z M 12 -2.6875 C 13.238281 -2.6875 14.398438 -2.976562 15.484375 -3.5625 C 16.566406 -4.144531 17.441406 -5.019531 18.109375 -6.1875 C 18.785156 -7.351562 19.125 -8.769531 19.125 -10.4375 C 19.125 -12.101562 18.796875 -13.519531 18.140625 -14.6875 C 17.484375 -15.851562 16.625 -16.71875 15.5625 -17.28125 C 14.5 -17.851562 13.347656 -18.140625 12.109375 -18.140625 C 10.835938 -18.140625 9.675781 -17.851562 8.625 -17.28125 C 7.582031 -16.71875 6.742188 -15.851562 6.109375 -14.6875 C 5.472656 -13.519531 5.15625 -12.101562 5.15625 -10.4375 C 5.15625 -8.738281 5.460938 -7.304688 6.078125 -6.140625 C 6.703125 -4.984375 7.535156 -4.117188 8.578125 -3.546875 C 9.617188 -2.972656 10.757812 -2.6875 12 -2.6875 Z M 12 -2.6875 "/></g></g></g><g fill="#e43d12" fill-opacity="1"><g transform="translate(223.005186, 171.656704)"><g><path d="M 6.375 -28.078125 L 6.375 0 L 2.921875 0 L 2.921875 -28.078125 Z M 6.375 -28.078125 "/></g></g></g><g fill="#e43d12" fill-opacity="1"><g transform="translate(232.342042, 171.656704)"><g><path d="M 1.625 -10.46875 C 1.625 -12.59375 2.054688 -14.457031 2.921875 -16.0625 C 3.785156 -17.675781 4.96875 -18.925781 6.46875 -19.8125 C 7.976562 -20.695312 9.65625 -21.140625 11.5 -21.140625 C 13.320312 -21.140625 14.898438 -20.742188 16.234375 -19.953125 C 17.578125 -19.171875 18.582031 -18.1875 19.25 -17 L 19.25 -20.796875 L 22.734375 -20.796875 L 22.734375 0 L 19.25 0 L 19.25 -3.875 C 18.5625 -2.65625 17.539062 -1.644531 16.1875 -0.84375 C 14.832031 -0.0507812 13.257812 0.34375 11.46875 0.34375 C 9.613281 0.34375 7.941406 -0.109375 6.453125 -1.015625 C 4.960938 -1.929688 3.785156 -3.210938 2.921875 -4.859375 C 2.054688 -6.503906 1.625 -8.375 1.625 -10.46875 Z M 19.25 -10.4375 C 19.25 -12.007812 18.929688 -13.375 18.296875 -14.53125 C 17.660156 -15.695312 16.804688 -16.585938 15.734375 -17.203125 C 14.660156 -17.828125 13.476562 -18.140625 12.1875 -18.140625 C 10.894531 -18.140625 9.71875 -17.832031 8.65625 -17.21875 C 7.59375 -16.613281 6.742188 -15.726562 6.109375 -14.5625 C 5.472656 -13.40625 5.15625 -12.039062 5.15625 -10.46875 C 5.15625 -8.875 5.472656 -7.488281 6.109375 -6.3125 C 6.742188 -5.132812 7.59375 -4.234375 8.65625 -3.609375 C 9.71875 -2.992188 10.894531 -2.6875 12.1875 -2.6875 C 13.476562 -2.6875 14.660156 -2.992188 15.734375 -3.609375 C 16.804688 -4.234375 17.660156 -5.132812 18.296875 -6.3125 C 18.929688 -7.488281 19.25 -8.863281 19.25 -10.4375 Z M 19.25 -10.4375 "/></g></g></g><g fill="#e43d12" fill-opacity="1"><g transform="translate(257.999402, 171.656704)"><g><path d="M 20.609375 -18.703125 C 20.609375 -16.503906 19.851562 -14.675781 18.34375 -13.21875 C 16.84375 -11.769531 14.550781 -11.046875 11.46875 -11.046875 L 6.375 -11.046875 L 6.375 0 L 2.921875 0 L 2.921875 -26.453125 L 11.46875 -26.453125 C 14.445312 -26.453125 16.710938 -25.726562 18.265625 -24.28125 C 19.828125 -22.84375 20.609375 -20.984375 20.609375 -18.703125 Z M 11.46875 -13.890625 C 13.382812 -13.890625 14.796875 -14.304688 15.703125 -15.140625 C 16.617188 -15.972656 17.078125 -17.160156 17.078125 -18.703125 C 17.078125 -21.972656 15.207031 -23.609375 11.46875 -23.609375 L 6.375 -23.609375 L 6.375 -13.890625 Z M 11.46875 -13.890625 "/></g></g></g><g fill="#e43d12" fill-opacity="1"><g transform="translate(279.975149, 171.656704)"><g><path d="M 6.375 -17.421875 C 6.976562 -18.609375 7.84375 -19.53125 8.96875 -20.1875 C 10.101562 -20.84375 11.476562 -21.171875 13.09375 -21.171875 L 13.09375 -17.609375 L 12.1875 -17.609375 C 8.3125 -17.609375 6.375 -15.507812 6.375 -11.3125 L 6.375 0 L 2.921875 0 L 2.921875 -20.796875 L 6.375 -20.796875 Z M 6.375 -17.421875 "/></g></g></g><g fill="#e43d12" fill-opacity="1"><g transform="translate(294.132229, 171.656704)"><g><path d="M 12 0.34375 C 10.050781 0.34375 8.285156 -0.0976562 6.703125 -0.984375 C 5.117188 -1.867188 3.875 -3.128906 2.96875 -4.765625 C 2.070312 -6.398438 1.625 -8.289062 1.625 -10.4375 C 1.625 -12.5625 2.085938 -14.4375 3.015625 -16.0625 C 3.941406 -17.695312 5.203125 -18.953125 6.796875 -19.828125 C 8.390625 -20.703125 10.171875 -21.140625 12.140625 -21.140625 C 14.117188 -21.140625 15.90625 -20.703125 17.5 -19.828125 C 19.09375 -18.953125 20.347656 -17.703125 21.265625 -16.078125 C 22.191406 -14.460938 22.65625 -12.582031 22.65625 -10.4375 C 22.65625 -8.289062 22.179688 -6.398438 21.234375 -4.765625 C 20.285156 -3.128906 19 -1.867188 17.375 -0.984375 C 15.757812 -0.0976562 13.96875 0.34375 12 0.34375 Z M 12 -2.6875 C 13.238281 -2.6875 14.398438 -2.976562 15.484375 -3.5625 C 16.566406 -4.144531 17.441406 -5.019531 18.109375 -6.1875 C 18.785156 -7.351562 19.125 -8.769531 19.125 -10.4375 C 19.125 -12.101562 18.796875 -13.519531 18.140625 -14.6875 C 17.484375 -15.851562 16.625 -16.71875 15.5625 -17.28125 C 14.5 -17.851562 13.347656 -18.140625 12.109375 -18.140625 C 10.835938 -18.140625 9.675781 -17.851562 8.625 -17.28125 C 7.582031 -16.71875 6.742188 -15.851562 6.109375 -14.6875 C 5.472656 -13.519531 5.15625 -12.101562 5.15625 -10.4375 C 5.15625 -8.738281 5.460938 -7.304688 6.078125 -6.140625 C 6.703125 -4.984375 7.535156 -4.117188 8.578125 -3.546875 C 9.617188 -2.972656 10.757812 -2.6875 12 -2.6875 Z M 12 -2.6875 "/></g></g></g><g fill="#e43d12" fill-opacity="1"><g transform="translate(318.423213, 171.656704)"><g><path d="M 1.625 -10.46875 C 1.625 -12.59375 2.054688 -14.457031 2.921875 -16.0625 C 3.785156 -17.675781 4.96875 -18.925781 6.46875 -19.8125 C 7.976562 -20.695312 9.664062 -21.140625 11.53125 -21.140625 C 13.15625 -21.140625 14.660156 -20.765625 16.046875 -20.015625 C 17.441406 -19.273438 18.507812 -18.296875 19.25 -17.078125 L 19.25 -28.078125 L 22.734375 -28.078125 L 22.734375 0 L 19.25 0 L 19.25 -3.90625 C 18.5625 -2.664062 17.546875 -1.644531 16.203125 -0.84375 C 14.859375 -0.0507812 13.289062 0.34375 11.5 0.34375 C 9.65625 0.34375 7.976562 -0.109375 6.46875 -1.015625 C 4.96875 -1.929688 3.785156 -3.210938 2.921875 -4.859375 C 2.054688 -6.503906 1.625 -8.375 1.625 -10.46875 Z M 19.25 -10.4375 C 19.25 -12.007812 18.929688 -13.375 18.296875 -14.53125 C 17.660156 -15.695312 16.804688 -16.585938 15.734375 -17.203125 C 14.660156 -17.828125 13.476562 -18.140625 12.1875 -18.140625 C 10.894531 -18.140625 9.71875 -17.832031 8.65625 -17.21875 C 7.59375 -16.613281 6.742188 -15.726562 6.109375 -14.5625 C 5.472656 -13.40625 5.15625 -12.039062 5.15625 -10.46875 C 5.15625 -8.875 5.472656 -7.488281 6.109375 -6.3125 C 6.742188 -5.132812 7.59375 -4.234375 8.65625 -3.609375 C 9.71875 -2.992188 10.894531 -2.6875 12.1875 -2.6875 C 13.476562 -2.6875 14.660156 -2.992188 15.734375 -3.609375 C 16.804688 -4.234375 17.660156 -5.132812 18.296875 -6.3125 C 18.929688 -7.488281 19.25 -8.863281 19.25 -10.4375 Z M 19.25 -10.4375 "/></g></g></g><g fill="#e43d12" fill-opacity="1"><g transform="translate(344.080573, 171.656704)"><g><path d="M 21.375 -20.796875 L 21.375 0 L 17.90625 0 L 17.90625 -3.078125 C 17.25 -2.015625 16.332031 -1.1875 15.15625 -0.59375 C 13.976562 0 12.679688 0.296875 11.265625 0.296875 C 9.648438 0.296875 8.195312 -0.0351562 6.90625 -0.703125 C 5.613281 -1.367188 4.59375 -2.375 3.84375 -3.71875 C 3.101562 -5.0625 2.734375 -6.691406 2.734375 -8.609375 L 2.734375 -20.796875 L 6.140625 -20.796875 L 6.140625 -9.078125 C 6.140625 -7.023438 6.660156 -5.445312 7.703125 -4.34375 C 8.742188 -3.238281 10.160156 -2.6875 11.953125 -2.6875 C 13.796875 -2.6875 15.25 -3.253906 16.3125 -4.390625 C 17.375 -5.535156 17.90625 -7.195312 17.90625 -9.375 L 17.90625 -20.796875 Z M 21.375 -20.796875 "/></g></g></g><g fill="#e43d12" fill-opacity="1"><g transform="translate(368.371557, 171.656704)"><g><path d="M 14.53125 0 L 6.375 -9.1875 L 6.375 0 L 2.921875 0 L 2.921875 -28.078125 L 6.375 -28.078125 L 6.375 -11.578125 L 14.390625 -20.796875 L 19.203125 -20.796875 L 9.40625 -10.4375 L 19.25 0 Z M 14.53125 0 "/></g></g></g></svg>