<svg xmlns="http://www.w3.org/2000/svg" xmlns:xlink="http://www.w3.org/1999/xlink" width="500" zoomAndPan="magnify" viewBox="0 0 375 374.999991" height="500" preserveAspectRatio="xMidYMid meet" version="1.0"><defs><g/></defs><g fill="#e43d12" fill-opacity="1"><g transform="translate(53.02205, 255.178183)"><g><path d="M 138.484375 -3.25 C 139.210938 -2.382812 139.359375 -1.625 138.921875 -0.96875 C 138.484375 -0.320312 137.6875 0 136.53125 0 L 99.203125 0 C 98.328125 0 97.675781 -0.21875 97.25 -0.65625 L 46.671875 -63.171875 C 45.941406 -62.441406 44.3125 -60.664062 41.78125 -57.84375 C 39.25 -55.019531 36.207031 -51.617188 32.65625 -47.640625 C 29.113281 -43.660156 25.460938 -39.535156 21.703125 -35.265625 C 17.941406 -31.003906 14.394531 -26.988281 11.0625 -23.21875 C 7.738281 -19.457031 5.0625 -16.421875 3.03125 -14.109375 C 1.007812 -11.796875 0 -10.640625 0 -10.640625 L 0 -171.703125 C 0 -173.003906 0.796875 -173.65625 2.390625 -173.65625 L 31.046875 -173.65625 C 32.484375 -173.65625 33.203125 -173.003906 33.203125 -171.703125 L 33.203125 -92.6875 L 98.546875 -173 C 98.984375 -173.4375 99.632812 -173.65625 100.5 -173.65625 L 135.875 -173.65625 C 137.039062 -173.65625 137.835938 -173.289062 138.265625 -172.5625 C 138.703125 -171.84375 138.554688 -171.117188 137.828125 -170.390625 L 68.8125 -85.3125 Z M 138.484375 -3.25 "/></g></g></g><g fill="#e43d12" fill-opacity="1"><g transform="translate(199.097097, 255.178183)"><g><path d="M 58.390625 -173.65625 C 59.835938 -173.65625 62.726562 -173.472656 67.0625 -173.109375 C 71.40625 -172.742188 76.363281 -171.726562 81.9375 -170.0625 C 87.507812 -168.40625 92.972656 -165.726562 98.328125 -162.03125 C 103.679688 -158.34375 108.128906 -153.242188 111.671875 -146.734375 C 115.222656 -140.222656 117 -131.832031 117 -121.5625 C 117 -113.019531 115.695312 -105.816406 113.09375 -99.953125 C 110.488281 -94.097656 107.050781 -89.285156 102.78125 -85.515625 C 98.507812 -81.753906 93.984375 -78.785156 89.203125 -76.609375 C 84.429688 -74.441406 79.835938 -72.890625 75.421875 -71.953125 C 71.015625 -71.015625 67.253906 -70.4375 64.140625 -70.21875 C 61.023438 -70 59.109375 -69.890625 58.390625 -69.890625 L 32.5625 -69.890625 L 32.5625 -1.953125 C 32.5625 -0.648438 31.835938 0 30.390625 0 L 2.171875 0 C 0.722656 0 0 -0.648438 0 -1.953125 L 0 -102.015625 L 58.390625 -102.015625 C 59.546875 -102.015625 61.460938 -102.160156 64.140625 -102.453125 C 66.816406 -102.742188 69.707031 -103.46875 72.8125 -104.625 C 75.925781 -105.78125 78.566406 -107.695312 80.734375 -110.375 C 82.910156 -113.050781 84 -116.78125 84 -121.5625 C 84 -126.332031 82.878906 -130.09375 80.640625 -132.84375 C 78.398438 -135.59375 75.722656 -137.582031 72.609375 -138.8125 C 69.492188 -140.039062 66.597656 -140.832031 63.921875 -141.1875 C 61.242188 -141.550781 59.398438 -141.734375 58.390625 -141.734375 L 0 -141.734375 L 0 -171.703125 C 0 -173.003906 0.722656 -173.65625 2.171875 -173.65625 Z M 58.390625 -173.65625 "/></g></g></g><path stroke-linecap="butt" transform="matrix(1.138719, -0.000000000000000847, 0.000000000000000847, 1.138719, 52.631235, 258.817337)" fill="none" stroke-linejoin="miter" d="M 0.00138494 11.000444 L 158.84903 11.000444 " stroke="#e43d12" stroke-width="22" stroke-opacity="1" stroke-miterlimit="4"/></svg>